HIERARCHY
ROOT Hips
{
	OFFSET 0.000000 0.000000 0.000000 
	CHANNELS 6 Xposition Yposition Zposition Zrotation Yrotation Xrotation
	JOINT LeftUpLeg
	{
		OFFSET 1.363060 -1.794630 0.839290 
		CHANNELS 3 Zrotation Yrotation Xrotation
		JOINT LeftLeg
		{
			OFFSET 2.448110 -6.726130 0.000000 
			CHANNELS 3 Zrotation Yrotation Xrotation
			JOINT LeftFoot
			{
				OFFSET 2.562200 -7.039590 0.000000 
				CHANNELS 3 Zrotation Yrotation Xrotation
				JOINT LeftToeBase
				{
					OFFSET 0.157640 -0.433110 2.322550 
					CHANNELS 3 Zrotation Yrotation Xrotation
					End Site
					{
						OFFSET 0.000000 0.000000 0.000000 
					}
				}
			}
		}
	}
	JOINT RightUpLeg
	{
		OFFSET -1.305520 -1.794630 0.839290 
		CHANNELS 3 Zrotation Yrotation Xrotation
		JOINT RightLeg
		{
			OFFSET -2.542530 -6.985550 0.000000 
			CHANNELS 3 Zrotation Yrotation Xrotation
			JOINT RightFoot
			{
				OFFSET -2.568260 -7.056230 0.000000 
				CHANNELS 3 Zrotation Yrotation Xrotation
				JOINT RightToeBase
				{
					OFFSET -0.164730 -0.452590 2.363150 
					CHANNELS 3 Zrotation Yrotation Xrotation
					End Site
					{
						OFFSET 0.000000 0.000000 0.000000 
					}
				}
			}
		}
	}
	JOINT Spine
	{
		OFFSET 0.028270 2.035590 -0.193380 
		CHANNELS 3 Zrotation Yrotation Xrotation
		JOINT Spine1
		{
			OFFSET 0.056720 2.048850 -0.042750 
			CHANNELS 3 Zrotation Yrotation Xrotation
			JOINT Neck1
			{
				OFFSET -0.054170 1.746240 0.172020 
				CHANNELS 3 Zrotation Yrotation Xrotation
				JOINT Head
				{
					OFFSET 0.104070 1.761360 -0.123970 
					CHANNELS 3 Zrotation Yrotation Xrotation
					End Site
					{
						OFFSET 0.000000 0.000000 0.000000 
					}
				}
			}
			JOINT LeftArm
			{
				OFFSET 3.362410 1.200890 -0.311210 
				CHANNELS 3 Zrotation Yrotation Xrotation
				JOINT LeftForeArm
				{
					OFFSET 4.983000 -0.000000 -0.000000 
					CHANNELS 3 Zrotation Yrotation Xrotation
					JOINT LeftHand
					{
						OFFSET 3.483560 -0.000000 -0.000000 
						CHANNELS 3 Zrotation Yrotation Xrotation
						JOINT LeftHandIndex1
						{
							OFFSET 0.715260 -0.000000 -0.000000 
							CHANNELS 3 Zrotation Yrotation Xrotation
							End Site
							{
								OFFSET 0.000000 0.000000 0.000000 
							}
						}
					}
				}
			}
			JOINT RightArm
			{
				OFFSET -3.136600 1.374050 -0.404650 
				CHANNELS 3 Zrotation Yrotation Xrotation
				JOINT RightForeArm
				{
					OFFSET -5.241900 -0.000000 -0.000000 
					CHANNELS 3 Zrotation Yrotation Xrotation
					JOINT RightHand
					{
						OFFSET -3.444170 -0.000000 -0.000000 
						CHANNELS 3 Zrotation Yrotation Xrotation
						JOINT RightHandIndex1
						{
							OFFSET -0.622530 -0.000000 -0.000000 
							CHANNELS 3 Zrotation Yrotation Xrotation
							End Site
							{
								OFFSET 0.000000 0.000000 0.000000 
							}
						}
					}
				}
			}
		}
	}
}
MOTION
Frames: 7
Frame Time: 0.041667
-0.344873 18.381487 7.747980 -10.752331 -3.990453 8.743059 -15.635874 -30.105546 11.344684 -3.502927 -1.579845 0.468156 -11.868737 37.330263 -19.383845 0.169100 2.649200 7.303500 24.769570 24.608198 0.388479 3.231990 -1.142506 4.705798 5.102494 -17.820717 2.152882 -0.007000 0.540300 -1.484700 33.583276 1.921948 -1.257651 -13.464546 -2.489717 -17.106722 20.883685 -21.795552 19.117510 3.862100 -9.604700 7.071500 -86.476918 -0.005994 50.796977 18.819721 -22.519719 -5.554375 2.199517 -1.261288 -30.998116 -7.125000 0.000000 0.000000 74.537611 -2.770830 57.387204 -29.478829 36.443984 -12.021169 -0.905465 1.899261 -34.860237 7.125000 0.000000 0.000000 
-0.344663 18.378441 7.743990 -10.534852 -4.228019 8.672006 -15.861723 -29.838246 11.345161 -3.505401 -1.577824 0.480447 -11.834679 37.270417 -19.344037 0.154100 2.529400 6.971100 24.562459 24.671271 0.478130 3.233465 -1.119900 4.662841 5.097033 -17.796747 2.244896 -0.009600 0.633900 -1.742000 33.240263 1.988207 -1.213728 -13.375549 -2.415769 -17.100751 21.213408 -21.892560 19.408642 3.923300 -9.613300 7.171100 -86.709860 -0.040787 53.368499 19.038086 -22.676598 -5.546948 1.631999 -1.248954 -28.176561 -7.125000 0.000000 0.000000 73.269666 -4.628946 70.264145 -25.883087 33.447862 -9.886817 -1.504733 1.983846 -5.714029 7.125000 0.000000 0.000000 
-0.343928 18.377076 7.738004 -10.591794 -4.275610 8.677785 -15.703884 -29.683770 11.196424 -3.498809 -1.572226 0.483874 -11.824361 37.213270 -19.180516 0.147300 2.473200 6.815400 24.624644 24.785726 0.558419 3.240972 -1.085548 4.576833 5.134404 -17.897429 2.163613 -0.008300 0.586700 -1.612200 33.254911 2.032939 -1.150685 -13.445554 -2.400682 -17.056533 21.199135 -21.930135 19.500163 3.913300 -9.624700 7.206500 -86.987470 -0.371349 54.421855 19.124578 -22.714032 -5.547115 1.407642 -1.161144 -27.084910 -7.125000 0.000000 0.000000 73.291750 -4.414778 70.699228 -25.865589 33.396019 -9.852459 -1.458515 1.976981 -5.144534 7.125000 0.000000 0.000000 
-0.346868 18.381487 7.732123 -10.257696 -4.122669 8.680775 -16.040580 -29.828704 11.179201 -3.498898 -1.537940 0.526195 -11.799733 37.185493 -19.103598 0.149300 2.490000 6.862100 24.273622 24.883332 0.647238 3.256962 -1.037778 4.427265 5.269444 -18.262303 2.059510 -0.008300 0.588000 -1.615900 32.948095 2.048973 -1.627629 -13.237224 -2.381184 -16.985676 21.146878 -21.871343 19.355161 3.913000 -9.620000 7.114300 -87.210135 -0.615726 53.978420 19.198773 -22.771355 -5.599881 1.453589 -1.062847 -27.710692 -7.125000 0.000000 0.000000 73.279955 -4.248282 70.716190 -26.563804 34.061224 -10.319015 -1.524704 2.007066 -7.709832 7.125000 0.000000 0.000000 
-0.349178 18.385267 7.728342 -10.048434 -4.047653 8.679236 -16.231944 -29.889578 11.157325 -3.498469 -1.519765 0.540578 -11.789413 37.175947 -19.029543 0.145700 2.460100 6.778900 24.078104 25.051021 0.787530 3.270983 -0.992406 4.295118 5.390318 -18.585674 1.922671 -0.007800 0.571100 -1.569400 32.732139 2.076358 -1.933726 -13.103623 -2.358524 -16.911210 21.124704 -21.846517 19.324650 3.913800 -9.617800 7.074400 -87.413039 -0.819970 54.141656 19.349470 -22.909236 -5.671273 1.383506 -1.003026 -27.635971 -7.125000 0.000000 0.000000 73.188264 -4.130345 71.138220 -26.521584 33.999457 -10.269468 -1.476227 2.017483 -7.810176 7.125000 0.000000 0.000000 
-0.352434 18.389258 7.732333 -9.839355 -3.873255 8.661893 -16.456467 -29.964821 11.179204 -3.497402 -1.511148 0.526063 -11.779207 37.155778 -18.849118 0.136000 2.376900 6.548400 23.908019 25.135236 0.984675 3.290166 -0.917290 4.102402 5.521544 -18.930089 1.752819 -0.007000 0.539800 -1.483400 32.502095 2.018680 -2.100852 -12.963074 -2.352070 -16.792041 21.104332 -21.813835 19.231136 3.909800 -9.613200 7.019600 -87.483416 -0.610209 56.329216 19.497753 -22.982370 -5.624703 0.680934 -0.948630 -24.479598 -7.125000 0.000000 0.000000 73.075020 -4.007757 71.486560 -26.494038 33.832322 -10.080575 -1.141526 2.113623 -7.937605 7.125000 0.000000 0.000000 
-0.355794 18.393039 7.735903 -9.646629 -3.707648 8.692827 -16.654872 -30.063025 11.206768 -3.497087 -1.504073 0.496537 -11.782206 37.173679 -18.704063 0.126600 2.293500 6.317500 23.773825 25.249524 1.162449 3.307029 -0.858475 3.941196 5.646561 -19.263239 1.570128 -0.005900 0.497600 -1.367400 32.196424 2.069399 -2.617171 -12.835837 -2.338815 -16.630345 21.088195 -21.792332 19.188876 3.909200 -9.613300 6.966900 -87.519545 -0.544314 56.861991 19.618473 -23.085889 -5.663529 0.450006 -0.854871 -23.587866 -7.125000 0.000000 0.000000 72.993198 -4.002584 71.697942 -26.529158 33.797024 -10.021214 -0.967609 2.139643 -8.209610 7.125000 0.000000 0.000000 
